<svg width="198" height="150" viewBox="0 0 198 150" fill="none" xmlns="http://www.w3.org/2000/svg">
<path d="M10.7549 139.813C8.82451 139.813 7.16992 139.538 5.51532 139.262C4.41226 138.986 3.58496 138.435 3.03343 137.883C2.20613 137.056 2.20613 135.953 2.75766 134.574C3.86072 132.368 4.96379 130.437 6.34262 128.507C4.68802 128.231 3.58496 127.955 2.20613 127.68C1.10306 127.404 0.551532 126.577 0.827298 125.474C1.37883 123.267 1.6546 121.061 2.75766 119.131C3.30919 118.304 3.58496 117.476 4.13649 116.649C4.68802 115.546 5.23955 114.443 6.34262 113.891C7.16992 113.34 7.16992 113.064 6.34262 112.513C5.23955 111.961 4.41226 111.134 3.30919 110.582C2.48189 110.031 2.48189 109.479 2.75766 108.652C3.30919 107.549 3.58496 106.17 4.68802 104.791C3.58496 104.791 2.75766 104.791 1.93036 104.515C0.551532 103.964 0 103.688 0 102.309C0.275766 99.2757 0.275766 95.9666 1.37883 92.9331C2.20613 91.0028 3.03343 88.7966 3.86072 86.8663C4.96379 84.9359 6.61838 83.8329 8.27298 82.454C11.0306 79.6964 14.6156 78.3175 18.4763 77.766C20.4067 77.2145 22.6128 77.2145 24.8189 77.766C27.8524 78.3175 31.1616 78.5933 34.195 79.4206C35.298 79.6964 36.4011 79.9721 37.7799 80.2479C38.3315 80.5237 38.6072 79.9721 38.883 79.6964C40.2618 76.9387 43.0195 74.7326 44.9499 72.2507C45.5014 71.4234 46.3287 70.5961 46.6045 69.7688C47.156 68.39 48.2591 67.5627 49.0863 66.4596C49.6379 65.9081 50.1894 65.3565 50.7409 64.5292C51.2925 63.7019 51.844 63.1504 52.6713 62.5989C54.0501 61.2201 55.9805 60.9443 57.3593 59.2897C59.5655 56.8078 62.8747 55.7047 65.3565 53.7744C69.493 51.0167 73.9053 48.259 78.0418 45.2256C79.9721 43.8468 82.1783 42.1922 84.1086 40.8134C87.1421 38.6072 90.727 37.2284 94.312 36.1253C97.6212 35.298 100.655 34.4707 103.964 33.9192C111.134 33.0919 117.752 30.61 124.646 29.507C128.507 28.9554 132.368 28.4039 135.953 28.1281C138.159 27.8524 140.365 27.3008 142.847 26.7493C143.674 26.4735 143.123 25.6462 143.674 25.3705C144.226 25.0947 144.501 26.1978 145.053 25.6462C145.604 24.8189 146.432 24.2674 146.983 23.4401C148.086 22.337 148.914 20.9582 150.292 20.1309C151.947 19.3036 153.326 17.9248 154.429 16.546C154.98 15.7187 155.808 14.8914 156.635 14.3398C159.944 12.1337 161.875 8.82451 163.805 5.51532C165.184 3.30919 167.39 1.93036 169.32 0C169.596 0 169.872 0 170.148 0C173.457 1.37883 177.042 1.6546 180.351 3.03343C182.006 3.86072 183.109 4.68802 184.212 6.34262C185.315 7.99721 186.694 9.37604 188.072 10.7549C190.554 12.961 192.485 15.4429 194.139 18.2006C194.691 19.3036 195.518 20.1309 196.345 21.234C197.448 23.1643 197.724 25.3705 198 27.3008C198 28.1281 197.448 28.9554 197.173 29.507C196.897 30.3343 196.07 30.8858 195.794 31.7131C195.794 31.9889 195.518 31.9889 195.242 31.9889C193.312 31.9889 192.209 33.0919 191.106 34.4707C190.83 34.7465 190.83 34.7465 190.554 35.0223C187.245 36.6769 184.763 39.4345 181.73 41.6407C176.766 45.2256 172.354 49.6379 167.39 53.4986C164.632 55.7047 162.15 57.9109 159.393 60.117C158.29 60.9443 157.462 62.5989 156.635 63.7019C154.429 67.2869 151.947 70.5961 149.189 73.3538C147.259 75.2841 144.777 76.9387 142.571 78.5933C139.262 80.7994 135.677 82.1783 131.816 83.0056C129.886 83.5571 128.231 84.3844 126.577 85.2117C123.543 86.5905 120.234 86.8663 116.925 87.6936C111.409 89.0724 105.894 91.0028 100.103 92.6574C98.1727 93.2089 96.2423 94.312 94.5877 95.415C94.0362 95.6908 93.2089 95.9666 92.6574 96.2423C89.8997 97.0696 87.6936 99 85.4875 100.655C83.5571 102.033 81.6267 103.412 79.6964 104.791C79.4206 105.067 79.1448 105.343 78.8691 105.618C78.0418 106.17 77.4902 106.721 76.3872 106.997C75.0084 107.549 73.3538 108.1 72.2507 108.928C71.1476 109.479 70.3203 110.031 69.2173 110.582C68.9415 110.582 68.6657 110.582 68.6657 110.858C65.0808 113.616 60.3928 114.994 56.8078 117.752C55.7047 118.579 54.3259 118.855 53.2228 119.682C52.6713 120.234 52.1198 120.785 52.1198 121.613C52.1198 125.749 51.0167 129.334 49.3621 132.919C48.2591 135.401 47.156 137.883 45.2256 139.813C43.2953 142.019 41.3649 143.95 38.6072 145.053C36.6769 145.88 34.7465 147.259 32.5404 147.811C28.1281 148.914 23.7159 149.465 19.3036 148.914C17.0975 148.638 15.1671 148.362 13.2368 147.535C11.8579 146.983 11.0306 146.156 9.92758 145.329C9.37604 144.777 9.65181 143.95 9.65181 143.398C9.92758 142.295 10.4791 141.192 10.7549 139.813ZM105.067 89.6239C105.067 89.6239 104.791 89.6239 104.791 89.8997L105.067 89.6239C107.825 89.3482 110.306 87.9694 112.788 87.4178C116.373 86.5905 120.234 85.7632 123.819 84.9359C124.922 84.6602 125.749 84.3844 126.577 83.5571C124.095 83.8329 121.613 84.3844 119.131 84.9359C114.443 86.039 109.755 87.6936 105.067 89.0724C105.067 89.0724 105.067 89.3482 105.067 89.6239ZM70.3203 90.1755C70.3203 90.1755 70.5961 90.1755 70.3203 90.1755C70.3203 89.8997 70.3203 89.8997 70.3203 90.1755C67.0111 91.5543 63.9777 93.7604 60.9443 95.415C59.2897 96.2423 57.6351 97.3454 55.9805 98.1727C52.6713 99.8273 49.9136 102.033 46.6045 103.688C44.6741 104.515 43.2953 106.17 41.0891 106.721C40.5376 106.997 40.2618 106.721 39.7103 106.446C38.0557 105.618 36.4011 104.515 34.7465 104.24C32.5404 103.964 30.61 103.688 28.4039 103.964C25.0947 104.24 22.0613 104.791 19.0279 106.17C14.8914 108.1 11.3064 110.858 7.99721 114.167C7.16992 114.719 6.34262 115.27 5.79109 116.097C4.13649 118.855 2.75766 121.889 2.20613 125.198C2.20613 125.749 2.20613 126.025 2.75766 126.025C4.13649 126.577 5.51532 126.852 7.16992 126.852C8.27298 126.852 8.82451 127.68 7.99721 128.507C6.61838 130.713 4.96379 132.643 4.13649 135.125C3.58496 136.504 3.58496 137.056 4.96379 137.607C5.51532 137.883 6.06685 138.159 6.61838 138.159C8.27298 138.435 9.92758 138.435 11.5822 138.435C12.6852 138.435 12.961 138.986 12.4095 139.813C11.5822 140.916 11.5822 142.295 11.0306 143.674C10.7549 143.95 11.0306 144.501 11.3064 144.777C12.1337 145.329 12.961 145.88 13.7883 146.156C14.8914 146.708 16.2702 146.708 17.3733 146.983C21.234 147.811 24.8189 147.535 28.6797 146.983C32.5404 146.432 35.5738 144.501 38.883 142.847C39.7103 142.295 40.5376 142.019 41.3649 141.192C43.8468 138.71 46.0529 135.953 47.4318 132.643C49.0864 129.058 50.4652 125.198 50.4652 121.337C50.4652 120.786 50.4652 120.51 49.9137 120.234C49.6379 120.234 49.3621 119.958 49.3621 119.682C49.3621 119.131 49.6379 119.131 49.9137 118.855C50.7409 118.579 51.5682 118.304 52.1198 118.028C54.8774 116.373 57.3593 114.719 60.3928 113.34C63.4262 111.685 66.4596 110.031 69.493 108.376C72.2507 106.997 74.7326 105.618 77.2145 103.964C78.5933 103.136 79.9721 101.758 81.9025 100.655C81.351 100.655 81.0752 100.655 81.0752 100.655C77.2145 102.033 73.3538 101.758 69.493 101.482C67.5627 101.206 66.1838 99.8273 66.1838 97.8969C66.1838 96.5181 66.7354 95.1393 67.5627 94.0362C68.6657 92.6574 69.7688 91.5543 70.3203 90.1755ZM187.245 35.0223V35.298C187.245 35.298 187.521 35.298 187.245 35.0223C187.797 35.0223 188.348 35.0223 188.072 34.4707C187.521 33.3677 188.072 33.6435 188.624 33.6435C189.451 33.6435 190.003 33.6435 189.451 32.5404V32.2646C190.279 31.1616 190.279 30.0585 190.279 28.9554C190.554 27.8524 190.554 27.0251 190.83 25.922C190.83 25.3705 191.106 24.8189 191.657 25.0947C192.485 25.0947 192.209 25.6462 192.209 26.1978C192.209 26.7493 192.209 27.0251 191.933 27.5766C191.657 28.6797 191.382 30.0585 191.382 31.4373C192.209 30.61 193.312 30.3343 193.312 29.2312C193.312 27.8524 193.864 26.7493 193.864 25.3705C193.864 24.8189 194.139 24.2674 194.967 24.5432C196.07 24.5432 195.794 25.0947 195.794 25.3705C195.518 26.4735 195.518 27.5766 195.242 28.6797C196.897 28.1281 196.897 27.3008 196.621 25.3705C196.07 22.337 194.415 20.1309 192.76 17.9248C191.933 16.8217 191.382 15.4429 190.554 14.6156C188.348 12.4095 185.866 10.2033 183.936 7.72145C182.281 5.79109 180.627 4.41226 178.421 3.86072C176.214 3.03343 173.733 2.75766 171.526 1.93036C170.423 1.6546 169.872 1.93036 169.596 2.75766C169.32 3.58496 169.045 3.86072 168.493 4.13649C167.39 4.68802 166.838 5.51532 166.011 6.61838C164.081 9.65181 161.875 12.6852 159.669 15.4429C157.738 17.649 155.532 19.5794 153.326 21.234C151.671 22.337 150.017 23.7159 148.638 25.0947L148.362 25.3705C147.811 26.7493 146.708 27.3008 145.604 28.1281C143.95 29.2312 142.02 29.2312 140.365 29.507C136.504 30.3343 132.643 31.1616 128.783 31.4373C125.198 31.7131 121.889 32.2646 118.579 33.3677C116.373 34.195 113.891 34.7465 111.685 34.7465C109.479 34.7465 107.549 35.298 105.343 35.5738C103.964 35.8496 102.585 36.1253 101.206 36.4011C99 36.6769 96.5181 36.9526 94.5877 38.3315C92.3816 39.7103 89.8997 39.9861 87.6936 41.9164C86.039 43.2953 84.1086 44.6741 81.9025 45.7772C81.351 46.0529 81.0752 46.3287 80.5237 46.6045C79.6964 47.7075 78.5933 48.2591 77.2145 48.8106C75.5599 49.3621 74.4568 50.4652 73.3538 51.5682C73.078 51.844 73.078 52.1198 72.5265 52.1198C69.493 53.7744 67.0111 55.9805 63.9777 57.3593C61.2201 58.7382 59.2897 60.9443 56.532 62.5989C54.8774 63.4262 54.0501 65.0808 52.6713 66.1838C51.844 66.7354 51.2925 67.2869 51.0167 68.1142C49.9137 70.5961 47.7075 72.2507 45.7772 74.1811C44.3983 75.8356 42.468 77.4902 41.0891 79.6964C49.0863 77.4902 57.0836 76.3872 63.4262 71.1476C63.4262 71.1476 63.1504 70.8719 62.8746 70.8719C62.5989 70.5961 62.3231 70.3203 62.5989 69.7688C62.8747 69.493 63.1504 69.493 63.702 69.7688C63.9777 69.7688 64.2535 70.0446 64.2535 70.0446C65.0808 71.1476 66.4596 70.8719 67.2869 70.3203C71.1476 68.39 75.5599 67.2869 79.4206 65.0808C80.5237 64.5292 80.7994 64.2535 79.6964 63.4262C79.1448 63.1504 78.3176 62.8746 78.8691 62.0473C79.4206 61.2201 79.9721 62.0473 80.7994 62.0473C81.0752 62.0473 81.0752 62.0473 81.351 62.3231C82.1783 62.8746 83.0056 62.8746 83.8329 62.8746C86.039 62.8746 88.2451 62.0473 90.1755 60.9443C92.6574 59.8412 95.1393 58.4624 97.8969 58.1866C97.0696 57.9109 96.7939 57.0836 95.9666 56.8078C95.6908 56.8078 95.1393 56.532 95.1393 55.9805C95.415 55.429 95.9666 55.429 96.5181 55.7047C99 56.8078 100.93 58.4624 102.033 60.9443C102.309 61.7716 102.309 62.3231 102.309 63.1504C101.758 64.805 101.206 66.7354 100.379 68.39C100.103 68.9415 99.8273 69.2173 99.5515 69.493C97.6212 71.1476 95.1393 71.9749 93.4847 74.1811C93.4847 74.4568 93.2089 74.4568 92.9332 74.4568C89.3482 76.9387 86.3148 79.9721 82.7298 82.1783C80.7994 83.2813 79.1448 84.9359 77.2145 86.039C75.2841 87.1421 73.9053 88.5209 72.8022 90.1755C72.8022 90.1755 72.5265 90.4512 72.8022 90.4512C72.8022 90.727 73.078 90.4512 73.078 90.4512C74.4568 89.0724 76.1114 88.7966 78.0418 88.2451C78.5933 87.9694 79.1448 87.9694 79.6964 88.2451C82.1783 89.6239 84.1086 91.5543 84.6602 94.5877C84.9359 95.415 84.6602 95.9666 83.8329 96.5181C83.2813 96.7939 83.0056 97.0696 82.454 97.3454C80.2479 98.7242 78.0418 99.8273 75.5599 100.655C78.0418 100.655 80.5237 99.8273 83.0056 99.2758C86.3148 98.4485 89.3482 96.2423 92.6574 95.1393C93.7604 94.5877 95.1393 94.0362 96.2423 93.2089C99.5515 91.2785 102.309 88.7966 106.446 87.9694C109.479 87.4178 112.513 86.039 115.546 85.2117C119.407 84.1086 123.267 83.0056 127.404 82.454C130.437 82.1783 133.195 82.1783 136.228 81.0752C141.192 79.1448 145.329 76.3872 149.189 72.8022C153.05 69.2173 155.532 64.805 158.565 60.3927C159.393 59.2897 159.669 57.3593 161.599 57.6351L161.875 57.3593C162.426 55.1532 162.702 52.9471 163.529 50.7409C163.529 50.4652 163.253 49.9136 163.805 49.9136C164.357 49.9136 164.357 50.4652 164.357 50.7409C164.357 52.3955 163.805 54.0501 163.529 55.7047C164.632 54.8774 165.46 54.3259 165.735 52.6713C165.735 50.4652 166.287 48.2591 166.287 46.0529C166.287 45.5014 166.563 45.2256 167.114 45.2256C167.666 45.2256 167.942 45.7772 167.942 46.3287C167.666 48.5348 167.666 50.7409 167.114 52.9471V53.2228H167.39C168.217 52.3955 169.596 51.844 169.596 50.4652C169.872 48.259 170.148 45.7772 170.699 43.571C170.699 43.0195 170.975 42.7437 171.251 42.468C171.526 42.468 171.802 42.468 172.078 42.7437C172.354 43.2953 172.354 43.571 172.078 44.1226C171.526 46.0529 171.251 47.9833 170.975 49.9136C170.975 49.9136 171.251 49.9136 171.251 50.1894C172.078 49.6379 172.905 49.0863 173.181 47.7075C173.457 44.9499 174.008 42.1922 174.836 39.4345C174.836 38.883 175.111 38.3315 175.663 38.6072C176.214 38.6072 176.214 39.1588 175.939 39.7103C175.663 39.9861 175.663 40.5376 175.663 40.8134C175.387 42.7437 174.836 44.9499 174.56 47.156C175.663 46.6045 176.49 45.7772 177.042 44.9499C177.318 44.6741 177.869 44.3983 177.869 43.571C178.145 42.468 178.145 41.3649 178.421 40.2618C178.696 38.6072 178.972 36.6769 179.248 35.0223C179.248 34.4707 179.524 33.9192 180.075 34.195C180.627 34.4707 180.627 35.0223 180.627 35.298C179.799 37.5042 179.799 39.9861 179.248 42.468C178.972 42.7437 178.972 42.7437 179.248 43.0195C179.248 43.2953 179.524 43.0195 179.524 42.7437C180.075 42.468 180.627 41.9164 181.178 41.6407C182.281 41.0891 182.833 39.9861 182.833 38.883C182.833 37.7799 183.109 36.4011 183.384 35.298C183.66 34.4707 183.936 33.9192 183.66 33.0919C183.66 32.2646 183.66 31.7131 184.212 31.1616C184.487 30.8858 184.763 30.8858 184.763 31.1616C185.315 31.7131 185.315 32.5404 185.039 33.0919C184.763 35.0223 184.487 36.6769 183.936 38.6072C183.936 38.883 183.66 38.883 183.936 39.1588H184.212C184.763 38.6072 185.315 38.3315 186.142 37.7799C186.418 37.5042 186.694 37.5042 186.694 36.9526C186.969 34.4707 187.245 31.7131 187.797 29.2312C187.797 28.6797 188.072 28.1281 188.624 28.1281C189.175 28.1281 189.175 28.9554 189.175 29.507C188.348 30.8858 187.797 32.8162 187.245 35.0223ZM21.5098 78.8691C18.4763 78.5933 15.7187 79.4206 13.2368 80.7994C10.4791 82.1783 8.27298 84.3844 6.06685 86.3148L5.79109 86.5905C3.30919 90.727 1.6546 95.1393 1.6546 100.103C1.6546 103.136 1.6546 103.136 4.41226 103.136C6.06685 103.136 6.61838 104.24 5.79109 105.618C5.23955 106.446 4.96379 107.549 4.41226 108.376C4.13649 108.928 4.41226 108.928 4.68802 109.479C5.51532 110.582 7.16992 110.858 8.27298 111.685C8.54875 111.961 8.82451 111.685 8.82451 111.409C11.3064 108.376 14.8914 106.446 18.4763 104.791C24.2674 102.309 30.0585 101.758 36.4011 102.861C37.5042 103.136 39.1588 102.861 39.9861 103.688C41.0891 104.515 41.0891 103.964 41.6407 103.136C41.9164 102.861 41.9164 102.585 41.9164 102.033C41.9164 99.8273 43.571 98.7242 45.2256 97.8969C48.5348 96.2423 51.844 94.8635 55.1532 93.4847C58.1866 92.3816 61.4958 91.5543 64.2535 89.8997C65.3565 89.0724 66.1838 88.2451 67.5627 87.6936C70.3203 86.5905 72.8022 85.4875 75.2841 84.1086C79.4206 81.9025 83.2813 79.1448 87.1421 76.3872C88.7967 75.0084 89.8997 73.078 91.8301 72.2507C93.4847 71.4234 94.5877 70.0446 96.2423 69.2173C97.6212 68.6657 99 67.5627 99.5515 65.9081C99.8273 65.0808 100.379 63.9777 100.655 63.1504C101.206 61.7716 100.655 59.5655 99.5515 58.4624C99.5515 58.4624 99.2758 58.1866 99 58.1866C97.0696 58.4624 95.1393 59.0139 93.7604 60.117C91.8301 61.4958 89.8997 62.5989 87.6936 63.7019C84.1086 65.6323 80.2479 67.0111 76.3872 68.1142C73.078 69.2173 70.0446 70.8719 66.7354 71.6992C64.2535 72.5265 61.7716 73.6295 59.5655 74.7326C57.3593 75.8356 55.429 76.6629 53.2228 77.2145C49.6379 78.0418 46.3287 79.1448 42.7437 80.2479C41.9164 80.5237 41.3649 80.7994 40.5376 81.0752C39.1588 82.1783 38.0557 82.1783 36.6769 80.7994L36.4011 80.5237C31.4373 80.2479 26.4735 79.4206 21.5098 78.8691ZM70.8719 100.379C71.6992 100.93 71.6992 99.8273 72.2507 99.5515C75.8357 98.7242 78.8691 97.0696 81.9025 95.1393C82.1783 94.8635 82.454 94.5877 82.1783 94.0362C81.9025 92.1058 80.5237 90.727 79.1449 89.6239C78.3176 88.7966 76.9387 88.5209 76.1114 89.0724C74.7326 90.1755 73.3538 91.2785 71.6992 92.3816C70.3203 93.4847 69.493 95.1393 68.1142 95.9666C67.5627 96.5181 67.2869 97.6212 67.5627 98.4485C67.8384 99.2758 68.39 99.8273 68.9415 99.8273C69.493 100.103 70.0446 100.103 70.8719 100.379ZM44.1226 102.861C46.3287 100.655 48.8106 99.8273 51.0167 98.4485C50.7409 98.4485 50.7409 98.4485 50.4652 98.4485C48.2591 99 46.6045 100.655 44.3983 101.206C43.8468 101.482 44.1226 102.033 44.1226 102.861ZM55.9805 95.6908C54.8774 95.9666 54.0501 96.2423 53.4986 97.3454C54.3259 96.7939 55.1532 96.5181 55.9805 95.6908ZM169.872 49.9136C169.872 49.6379 169.872 49.6379 169.872 49.9136C169.872 49.6379 169.872 49.9136 169.872 49.9136ZM51.5682 98.4485C51.5682 98.4485 51.5682 98.1727 51.5682 98.4485C51.2925 98.1727 51.2925 98.4485 51.5682 98.4485C51.2925 98.4485 51.2925 98.4485 51.5682 98.4485Z" fill="#0A0A0A"/>
</svg>
