<svg width="175" height="147" viewBox="0 0 175 147" fill="none" xmlns="http://www.w3.org/2000/svg">
<g opacity="0.1">
<path d="M141.932 91.5222C144.248 94.2636 142.46 96.6906 140.387 98.3265C138.44 99.6944 136.459 99.7349 134.461 99.1118L134.193 98.9845C131.694 99.434 130.448 97.202 129.219 95.6335C128.257 94.1924 126.777 93.1603 125.422 91.8601C125.422 91.8601 125.155 91.7328 124.887 91.6054C124.102 91.8871 122.906 91.646 122.263 92.3231C122.689 93.5096 123.509 94.5552 124.454 95.3327C125.399 96.1101 125.825 97.2965 126.645 98.3422C127.197 99.2605 126.195 101.406 125.033 102.492C123.103 104.523 120.854 104.437 118.338 104.222C117.41 104.109 115.964 104.404 115.161 104.022C114.894 103.895 114.359 103.64 114.091 103.513C112.594 101.817 110.705 100.262 109.458 98.0299C109.174 97.2389 108.639 96.9842 108.087 96.066C107.393 94.7522 106.59 94.3702 105.554 95.1882C104.517 96.0062 103.464 96.1606 102.269 95.9194C103.623 97.2197 104.727 99.0563 106.082 100.357C107.437 101.657 108.006 103.239 108.449 105.089C108.876 106.275 108.107 107.221 106.803 107.911C103.928 109.165 100.894 109.36 97.7344 109.823C96.2884 110.118 95.2013 108.945 93.9889 108.041C93.7214 107.913 93.0441 107.263 92.2415 106.881C91.4389 106.499 91.0291 105.976 90.7446 105.185C89.3561 102.558 87.0567 100.48 86.1863 97.4437C85.167 98.9253 84.1138 99.0797 82.7761 98.4431C82.241 98.1884 81.4384 97.8065 81.0625 98.6109C80.8119 99.1472 81.6145 99.5292 81.7568 99.9247C83.6634 102.143 85.4447 104.63 87.3513 106.849C87.7611 107.371 88.0286 107.499 88.4384 108.021C89.793 109.322 89.8439 111.313 88.557 112.667C85.5904 115.516 81.7874 116.657 77.5407 115.947C76.6128 115.833 76.3283 115.042 75.7933 114.787C74.1711 113.36 72.2814 111.805 70.6593 110.377C68.2345 108.568 67.2389 105.799 65.4575 103.313C64.9055 102.394 64.7463 101.335 64.1943 100.417C64.0521 100.021 64.0521 100.021 63.517 99.7667C60.7164 98.7617 58.952 96.9386 57.4382 94.5792C55.6569 92.0925 53.3574 90.0148 51.1833 87.6689C49.2936 86.114 47.922 84.1501 46.6758 81.9181C44.8945 79.4313 42.8625 77.481 41.474 74.8534C40.2278 72.6213 39.2491 70.5166 38.3956 68.1437C37.9689 66.9573 37.5422 65.7708 36.9902 64.8525C35.3511 62.7613 34.3724 60.6566 34.3047 58.002C34.1116 55.6156 32.7401 53.6517 31.2432 51.9559C29.6041 49.8647 27.5722 47.9143 25.9331 45.8231C25.3811 44.9048 24.4532 44.791 23.9012 43.8727C21.4426 40.7359 21.4832 37.1495 22.577 33.4088C22.9529 32.6043 23.3288 31.7998 23.4371 30.868C23.5455 29.9362 24.1889 29.259 25.0999 28.7092C26.8135 28.5413 28.3679 27.3143 30.2067 26.8783C32.8313 26.1606 35.3644 27.0384 38.0228 27.648C40.6812 28.2576 43.4819 29.2626 45.9066 31.0722C47.119 31.977 48.8495 32.4727 50.5631 32.3049C52.937 32.1235 55.1687 31.5466 57.4174 31.6334C60.0589 31.5794 62.575 31.7935 65.2334 32.4031C67.3568 32.758 68.8536 34.4538 70.4758 35.8813C71.8304 37.1816 73.4187 37.2819 75.1492 37.7777C75.6843 38.0323 76.0771 37.8915 76.1855 36.9597C76.1685 36.296 76.6866 35.887 77.364 36.5372C77.6315 36.6645 77.6315 36.6645 77.899 36.7918C79.8632 36.0876 81.9865 36.4426 83.8254 36.0066C85.0039 35.584 86.0741 36.0933 87.1442 36.6026C88.4819 37.2393 89.8195 37.8759 91.1572 38.5125C92.1021 39.2899 93.03 39.4037 93.8156 39.1221C95.1364 39.095 96.4571 39.068 97.6356 38.6455C100.653 37.787 103.294 37.7329 106.112 39.4016C107.985 40.2929 110.108 40.6479 112.072 39.9437C115.09 39.0851 117.623 39.9629 119.512 41.5178C122.205 43.4547 124.772 45.6597 126.821 48.2737C128.192 50.2376 129.957 52.0607 131.972 53.3475C134.129 55.0297 135.768 57.1209 137.407 59.2121C139.866 62.349 142.324 65.4858 145.176 68.4818C145.585 69.0046 145.853 69.132 145.87 69.7956C146.74 72.8321 149.04 74.9098 151.214 77.2557C152.711 78.9515 153.547 80.6607 154.651 82.4973C154.793 82.8928 154.936 83.2883 155.203 83.4156C156.131 83.5294 155.881 84.0657 155.362 84.4747C155.237 84.7429 155.112 85.011 155.112 85.011C155.647 85.2657 155.898 84.7294 156.165 84.8567C156.558 84.7159 156.951 84.575 156.968 85.2387C157.11 85.6341 156.592 86.0431 156.324 85.9158C155.522 85.5338 155.539 86.1975 155.413 86.4657C153.859 87.6926 154.929 88.2019 155.749 89.2475C157.245 90.9433 158.742 92.639 160.114 94.6029C161.076 96.044 160.842 97.244 159.145 98.0755C157.181 98.7797 155.217 99.4839 153.236 99.5244C151.522 99.6923 149.917 98.9283 149.081 97.2191C148.244 95.5098 146.764 94.4777 145.535 92.9093C144.431 91.0727 143.361 90.5634 141.932 91.5222ZM93.623 88.5269C92.8373 88.8085 92.4614 89.613 91.9433 90.022C92.729 89.7403 93.3724 89.0632 93.623 88.5269C93.8905 88.6542 94.0158 88.386 94.1411 88.1179C93.8736 87.9905 93.7483 88.2587 93.623 88.5269ZM132.825 81.616C131.772 81.7703 131.271 82.8429 130.36 83.3928C131.162 83.7747 131.43 83.9021 131.806 83.0976C132.056 82.5613 132.575 82.1523 132.825 81.616C133.093 81.7433 133.218 81.4751 132.825 81.616C132.95 81.3478 132.95 81.3478 132.825 81.616ZM151.007 84.6966C151.935 84.8104 152.22 85.6014 152.897 86.2515C153.039 86.647 153.574 86.9017 153.825 86.3654C154.343 85.9564 154.201 85.5609 153.541 85.5744C153.273 85.4471 153.005 85.3197 153.398 85.1789C154.292 83.9654 153.222 83.4561 153.205 82.7925C152.294 83.3423 151.509 83.624 151.007 84.6966C150.865 84.3011 150.865 84.3011 151.007 84.6966C150.74 84.5693 150.74 84.5693 151.007 84.6966ZM75.3327 112.274L75.6002 112.401C75.3327 112.274 75.458 112.005 75.3327 112.274C76.9785 109.451 79.1933 108.211 82.2276 108.016C83.5483 107.989 84.7268 107.566 86.1898 107.935C84.5507 105.843 83.0369 103.484 81.005 101.534C80.1854 100.488 79.3659 99.4424 78.7969 97.8605C78.2449 96.9422 75.5526 95.0053 74.767 95.287C72.8028 95.9912 70.6795 95.6362 68.8406 96.0723C68.4478 96.2131 68.0549 96.3539 67.5368 96.7629C65.3559 99.3307 65.3559 99.3307 66.8866 102.354L67.0289 102.749C68.2582 104.318 68.7018 106.168 69.9311 107.736C71.8208 109.291 73.3177 110.987 75.3327 112.274ZM113.688 46.2849C113.955 46.4122 113.955 46.4122 113.688 46.2849C113.938 45.7486 114.189 45.2123 114.172 44.5486C114.155 43.885 114.406 43.3487 114.941 43.6033C115.476 43.858 115.35 44.1261 115.1 44.6624C114.866 45.8624 114.758 46.7942 114.524 47.9942C114.274 48.5305 114.809 48.7851 115.202 48.6443C115.469 48.7716 115.594 48.5035 115.452 48.108C115.577 47.8398 115.577 47.8398 115.703 47.5717C115.953 47.0353 115.527 45.8489 116.597 46.3582C117.399 46.7402 116.631 47.6855 116.505 47.9536C115.879 49.2944 116.163 50.0854 117.376 50.9902C117.626 50.4539 117.484 50.0584 117.735 49.5221C117.592 49.1266 117.575 48.4629 118.503 48.5767C119.164 48.5632 118.788 49.3677 118.93 49.7632C118.571 51.2313 118.087 52.9676 119.96 53.8589C120.21 53.3225 120.319 52.3907 120.302 51.7271C120.427 51.4589 120.41 50.7953 120.945 51.0499C121.338 50.9091 121.355 51.5727 121.23 51.8409C121.104 52.1091 121.246 52.5045 120.996 53.0409C120.119 54.918 120.295 56.6408 121.524 58.2092C121.758 57.0092 122.134 56.2047 122.367 55.0048C122.618 54.4684 122.618 54.4684 123.011 54.3276C123.671 54.3141 123.813 54.7096 123.563 55.2459C123.062 56.3185 123.363 57.7731 122.202 58.8593C122.076 59.1275 122.076 59.1275 122.076 59.1275C122.486 59.6503 122.645 60.7094 123.448 61.0914C123.607 62.1505 124.41 62.5325 125.354 63.3099C125.588 62.11 126.089 61.0373 126.323 59.8373C126.574 59.301 126.699 59.0329 126.966 59.1602C127.627 59.1467 127.376 59.683 127.251 59.9512C127.142 60.883 127.034 61.8148 126.533 62.8874C126.032 63.96 126.191 65.0192 127.136 65.7966C127.136 65.7966 127.01 66.0648 127.403 65.9239L127.529 65.6558C127.904 64.8513 128.138 63.6513 128.514 62.8469C128.639 62.5787 128.622 61.9151 129.157 62.1697C129.693 62.4244 129.567 62.6925 129.317 63.2288C128.941 64.0333 128.958 64.697 128.582 65.5014C128.331 66.0378 128.081 66.5741 128.098 67.2377C128.934 68.947 130.163 70.5154 131.267 72.352C131.359 70.7565 131.718 69.2884 132.344 67.9476C132.469 67.6794 132.453 67.0158 132.988 67.2705C133.523 67.5251 133.397 67.7933 133.147 68.3296C132.788 69.7977 132.554 70.9977 131.928 72.3385C131.552 73.1429 131.569 73.8066 131.995 74.993C132.605 72.9886 133.482 71.1115 134.234 69.5025C134.359 69.2344 134.075 68.4434 134.61 68.698C135.145 68.9527 135.287 69.3482 135.036 69.8845C134.285 71.4934 133.8 73.2297 133.049 74.8387C132.155 76.0522 132.832 76.7023 133.384 77.6206C133.526 78.0161 133.794 78.1434 134.187 78.0026L134.437 77.4662C134.921 75.7299 135.263 73.5982 135.748 71.8619C135.998 71.3256 136.374 70.5211 136.625 69.9848C136.75 69.7166 137.143 69.5758 137.41 69.7031C137.945 69.9578 137.553 70.0986 137.302 70.6349C137.051 71.1712 136.926 71.4394 136.676 71.9757C136.066 73.9802 135.724 76.1119 135.24 77.8482C134.989 78.3845 134.739 78.9208 134.881 79.3163C135.558 79.9665 135.717 81.0256 136.52 81.4076C137.322 81.7895 137.465 82.185 137.482 82.8486C137.874 82.7078 138 82.4397 138.125 82.1715C138.752 80.8307 139.111 79.3626 139.737 78.0218C139.988 77.4855 140.238 76.9491 141.041 77.3311C141.576 77.5857 141.058 77.9947 140.807 78.5311L140.682 78.7992C139.93 80.4082 139.856 82.6673 138.301 83.8943C138.301 83.8943 137.908 84.0351 138.176 84.1624C138.853 84.8125 138.352 85.8852 139.029 86.5353C139.707 87.1855 139.456 87.7218 138.545 88.2716C139.49 89.0491 140.401 88.4992 141.329 88.613C142.257 88.7268 142.775 88.3178 142.348 87.1314C142.223 87.3996 142.223 87.3996 142.223 87.3996C142.098 87.6677 141.579 88.0767 141.312 87.9494C141.044 87.8221 141.295 87.2857 141.42 87.0176C141.796 86.2131 142.565 85.2678 142.941 84.4633C143.066 84.1952 143.317 83.6588 143.852 83.9135C144.387 84.1681 144.404 84.8318 144.011 84.9726C143.886 85.2408 143.493 85.3816 143.902 85.9044C145.064 84.8183 146.226 83.7321 147.387 82.6459C147.905 82.237 148.423 81.828 148.833 82.3508C149.653 83.3964 150.029 82.5919 150.279 82.0556C150.797 81.6466 151.316 81.2376 151.976 81.2241C150.337 79.1328 148.572 77.3098 146.933 75.2185C145.579 73.9183 145.528 71.9274 144.173 70.6271C141.447 67.3629 138.721 64.0988 136.12 60.5665C134.481 58.4752 132.574 56.2567 130.292 54.8426C128.812 53.8105 127.457 52.5103 126.353 50.6737C125.659 49.3599 124.572 48.187 123.234 47.5503C122.432 47.1684 121.612 46.1228 120.935 45.4726C118.351 42.6039 114.748 41.2169 111.229 43.1481C112.157 43.2619 112.049 44.1937 112.726 44.8438L112.851 44.5757C113.102 44.0393 113.352 43.503 113.888 43.7577C114.423 44.0123 113.904 44.4213 114.047 44.8168C113.654 44.9576 113.671 45.6213 113.688 46.2849ZM121.006 84.5138C121.165 85.5729 121.057 86.5047 121.216 87.5638L121.484 87.6911C122.486 85.5459 123.489 83.4006 124.491 81.2553C126.096 82.0192 124.132 82.7234 124.684 83.6417C125.47 83.36 125.846 82.5556 126.381 82.8102C126.916 83.0649 127.041 82.7967 127.434 82.6559C128.203 81.7105 129.239 80.8926 129.882 80.2154C130.275 80.0746 130.258 79.4109 130.793 79.6656C131.203 80.1884 130.685 80.5974 130.56 80.8655C129.916 81.5427 129.005 82.0925 128.236 83.0378L128.111 83.306L128.379 83.4333C128.914 83.688 129.164 83.1516 129.29 82.8835C130.058 81.9382 130.969 81.3883 131.613 80.7112C132.131 80.3022 132.917 80.0205 133.076 81.0796C132.95 81.3478 133.218 81.4751 133.343 81.207C133.469 80.9388 133.861 80.798 133.594 80.6706C133.326 80.5433 133.184 80.1478 133.184 80.1478C131.972 79.2431 131.152 78.1974 130.583 76.6155C129.605 74.5108 129.019 72.2652 127.647 70.3013C126.276 68.3374 125.297 66.2326 123.8 64.5369C121.626 62.191 120.112 59.8316 118.849 56.9359C118.28 55.354 117.318 53.9129 116.231 52.74C114.057 50.3941 112.15 48.1755 110.887 45.2798C110.443 43.4297 109.214 41.8613 106.965 41.7745C106.305 41.7881 105.895 41.2653 105.36 41.0106C104.29 40.5013 103.095 40.2602 102.041 40.4145C99.7928 40.3277 97.7034 41.3001 95.4717 41.8769C98.2893 43.5457 99.9453 46.3005 101.601 49.0554C101.818 47.1918 102.445 45.851 103.339 44.6375C103.464 44.3694 103.714 43.833 104.25 44.0877C104.785 44.3423 104.534 44.8787 104.283 45.415C103.782 46.4876 103.281 47.5603 102.78 48.6329C101.886 49.8464 102.187 51.301 103.007 52.3466C103.559 53.2649 104.253 54.5787 105.073 55.6243C105.215 56.0197 105.767 56.938 106.285 56.529C106.678 56.3882 106.928 55.8519 106.911 55.1882C107.287 54.3838 107.788 53.3111 108.164 52.5066C108.29 52.2385 108.54 51.7022 109.075 51.9568C109.61 52.2115 109.092 52.6205 108.967 52.8886C108.716 53.4249 108.608 54.3567 108.357 54.8931C107.856 55.9657 107.355 57.0383 106.444 57.5882C106.854 58.111 107.264 58.6338 107.548 59.4247C107.924 58.6203 107.907 57.9566 108.158 57.4203C108.534 56.6158 108.767 55.4159 109.411 54.7387C109.536 54.4705 109.929 54.3297 110.196 54.457C110.464 54.5844 110.339 54.8525 110.213 55.1207C109.587 56.4615 108.96 57.8023 108.334 59.1431C108.083 59.6794 107.816 59.5521 107.155 59.5656C107.833 60.2157 107.992 61.2748 108.794 61.6568C109.688 60.4433 109.655 59.116 110.281 57.7753C110.406 57.5071 110.389 56.8434 110.924 57.0981C111.46 57.3527 111.334 57.6209 111.351 58.2845C111.243 59.2163 111.009 60.4163 110.24 61.3616C109.472 62.3069 109.756 63.0979 110.701 63.8754C111.327 62.5346 111.686 61.0664 112.313 59.7256C112.438 59.4575 112.421 58.7938 112.956 59.0485C113.491 59.3031 113.366 59.5713 113.241 59.8395C112.865 60.6439 112.757 61.5757 112.381 62.3802C110.969 64.0027 111.537 65.5846 112.625 66.7576C112.892 66.8849 112.767 67.153 112.767 67.153C113.319 68.0713 113.603 68.8623 114.673 69.3716C115.385 71.349 116.363 73.4537 117.985 74.8813C118.805 75.9269 119.198 75.7861 120.092 74.5726C120.468 73.7682 120.844 72.9637 121.22 72.1592C121.345 71.891 121.863 71.482 122.131 71.6094C122.666 71.864 122.415 72.4003 122.29 72.6685C121.788 73.7411 121.287 74.8138 120.376 75.3636C118.947 76.3224 119.374 77.5089 119.926 78.4272C120.353 79.6136 120.512 80.6727 120.796 81.4637C120.83 82.791 120.722 83.7228 121.006 84.5138ZM77.5841 45.1645C77.4588 45.4327 77.4588 45.4327 77.7264 45.56C79.4908 47.3831 80.3442 49.756 81.5904 51.988C82.8367 54.2201 83.6901 56.593 84.6688 58.6977C85.0955 59.8842 86.3079 60.789 86.7346 61.9754C87.7133 64.0802 88.5498 65.7894 89.9214 67.7533C90.3312 68.2761 90.7409 68.7989 91.1507 69.3217C92.8067 72.0766 94.5881 74.5633 96.6369 77.1774C99.0955 80.3142 102.215 83.4375 102.458 87.8149C102.601 88.2103 102.618 88.874 103.278 88.8605C103.938 88.847 103.688 89.3833 103.17 89.7923C102.259 90.3421 101.365 91.5556 100.454 92.1054C99.5427 92.6553 100.488 93.4327 100.237 93.969C100.112 94.2372 100.789 94.8873 101.182 94.7465C102.77 94.8468 104.358 94.9471 105.645 93.5928C104.023 92.1652 104.023 92.1652 102.469 93.3922C102.343 93.6603 102.076 93.533 101.95 93.8012C101.558 93.942 101.432 94.2102 100.897 93.9555C100.488 93.4327 100.88 93.2919 101.273 93.151C102.452 92.7285 102.401 90.7376 103.847 90.4424C103.955 89.5106 104.331 88.7061 104.975 88.029C105.1 87.7608 105.225 87.4927 104.958 87.3653C104.423 87.1107 104.548 86.8425 104.673 86.5744C105.174 85.5017 105.676 84.4291 106.177 83.3564C106.302 83.0883 106.285 82.4246 106.82 82.6793C107.355 82.9339 107.105 83.4703 106.979 83.7384C106.603 84.5429 106.228 85.3474 105.994 86.5473C106.905 85.9975 107.423 85.5885 108.066 84.9114C108.459 84.7705 108.585 84.5024 109.12 84.757C109.529 85.2798 109.655 85.0116 110.048 84.8708C110.566 84.4618 111.209 83.7847 111.995 83.503C112.388 83.3621 112.906 82.9532 113.048 83.3486C113.725 83.9988 114.243 83.5898 114.762 83.1808C115.154 83.0399 115.547 82.8991 115.689 83.2946C115.832 83.6901 115.439 83.8309 115.314 84.0991C114.403 84.6489 113.492 85.1987 112.848 85.8759C113.383 86.1305 113.901 85.7215 114.027 85.4534C114.938 84.9035 115.581 84.2264 116.617 83.4084C117.01 83.2676 117.261 82.7312 117.796 82.9859C118.331 83.2405 117.545 83.5222 117.688 83.9177C118.08 83.7768 118.598 83.3679 118.991 83.227C119.384 83.0862 119.509 82.818 119.367 82.4225C119.066 80.9679 118.622 79.1178 118.321 77.6632C117.552 78.6085 116.892 78.6221 117.142 78.0857C117.501 76.6176 116.289 75.7128 115.737 74.7945C113.512 70.4577 111.036 66.6573 108.293 62.7295C106.905 60.1019 105.123 57.6152 103.342 55.1285C101.828 52.7691 100.565 49.8734 99.0512 47.514C96.5757 43.7135 93.5989 40.9857 89.5859 39.0758C87.1781 37.9299 84.8041 38.1113 82.1626 38.1654C81.1094 38.3197 80.3238 38.6014 79.3959 38.4876C78.0751 38.5146 77.005 38.0053 75.8434 39.0914C75.7181 39.3596 75.1831 39.105 74.5227 39.1185C74.1299 39.2593 73.3273 38.8773 72.5246 38.4954C73.3442 39.541 73.6287 40.332 74.306 40.9821C75.2678 42.4232 76.2295 43.8643 77.5841 45.1645ZM53.6245 38.3509C53.4992 38.6191 53.4992 38.6191 53.6245 38.3509C53.7668 38.7464 53.8921 38.4783 53.6245 38.3509C54.0004 37.5465 54.3763 36.742 54.7522 35.9375C54.8775 35.6693 55.2534 34.8649 55.7885 35.1195C56.3236 35.3742 56.073 35.9105 55.8224 36.4468C55.3212 37.5194 54.9622 38.9876 54.7286 40.1875C55.1045 39.383 55.355 38.8467 55.7309 38.0422C55.8562 37.7741 56.2491 37.6332 56.5166 37.7606C56.7841 37.8879 56.6588 38.156 56.5335 38.4242C56.1577 39.2287 56.1746 39.8923 55.7987 40.6968C55.1722 42.0376 55.1722 42.0376 56.5099 42.6742C56.6013 41.0788 56.9603 39.6107 57.8543 38.3972C57.9796 38.129 58.1049 37.8609 58.3724 37.9882C58.64 38.1155 58.7822 38.511 58.6569 38.7792C58.4063 39.3155 58.0304 40.12 58.0473 40.7836C57.939 41.7154 57.4378 42.788 57.597 43.8472C57.7223 43.579 57.8476 43.3108 57.9729 43.0427C58.2235 42.5064 57.922 41.0518 58.8499 41.1656C59.6526 41.5475 58.8838 42.4928 58.7755 43.4247C58.6671 44.3565 58.3996 44.2291 59.3444 45.0066C59.3105 43.6793 60.3468 42.8613 60.5805 41.6613C60.8311 41.125 60.6888 40.7295 61.2239 40.9842C61.759 41.2388 61.9012 41.6343 61.6506 42.1706C61.1494 43.2433 60.7735 44.0478 60.5398 45.2477C60.164 46.0522 59.7881 46.8567 60.7329 47.6341C60.7329 47.6341 60.7329 47.6341 60.8751 48.0296L61.0004 47.7615C61.3763 46.957 61.3594 46.2933 61.7353 45.4889C61.8606 45.2207 61.9859 44.9525 62.521 45.2072C63.056 45.4618 62.6632 45.6027 62.8054 45.9981C62.4295 46.8026 62.4465 47.4663 62.0706 48.2707C61.6947 49.0752 61.8369 49.4707 62.2467 49.9935C62.6226 49.189 62.4634 48.1299 63.2321 47.1846C63.3574 46.9164 63.608 46.3801 64.1431 46.6348C64.6782 46.8894 64.4276 47.4257 64.3023 47.6939C63.8011 48.7665 63.835 50.0938 63.3338 51.1665C63.0832 51.7028 63.1001 52.3664 63.9027 52.7484C64.2786 51.9439 64.387 51.0121 64.7629 50.2076C64.8882 49.9395 65.0135 49.6713 65.4063 49.5305C66.0667 49.517 65.8161 50.0533 65.9583 50.4488C65.5824 51.2532 65.5993 51.9169 65.2234 52.7214C64.7223 53.794 64.4886 54.994 65.701 55.8987C66.2022 54.8261 66.3105 53.8943 66.8117 52.8217C66.937 52.5535 67.0623 52.2853 67.5974 52.54C67.8649 52.6673 68.0072 53.0628 67.8819 53.3309C67.6313 53.8673 67.2554 54.6718 67.2723 55.3354C66.9134 56.8035 66.6797 58.0035 67.3739 59.3173L67.6415 59.4446L67.7668 59.1764C68.0004 57.9765 68.1088 57.0446 68.61 55.972C68.7353 55.7039 68.593 55.3084 68.9859 55.1675C69.6462 55.154 69.7885 55.5495 69.5379 56.0858C69.4295 57.0176 69.0536 57.8221 69.0706 58.4857C69.2297 59.5449 68.0682 60.631 69.1553 61.804C69.03 62.0721 69.2975 62.1994 69.565 62.3268C69.9579 62.1859 69.6903 62.0586 69.5481 61.6631C69.5142 60.3358 69.6056 58.7404 70.2321 57.3996C70.4827 56.8633 70.7333 56.327 71.5359 56.7089C72.071 56.9636 71.5529 57.3726 71.3023 57.9089C70.5505 59.5178 70.3338 61.3815 70.7774 63.2315C71.1533 62.4271 71.4039 61.8907 71.5123 60.9589C71.6376 60.6908 71.8882 60.1545 72.4232 60.4091C72.9583 60.6638 72.5655 60.8046 72.7077 61.2001C72.4571 61.7364 72.5993 62.1319 72.3487 62.6682C71.9898 64.1363 70.9705 65.618 71.9322 67.0591C71.9322 67.0591 71.8069 67.3272 72.0745 67.4545L72.1998 67.1864C72.4334 65.9864 72.6671 64.7865 72.9008 63.5865C73.026 63.3183 73.2767 62.782 73.937 62.7685C74.5974 62.755 73.954 63.4321 74.2215 63.5595C74.506 64.3504 74.1301 65.1549 73.7542 65.9594C73.6458 66.8912 73.1446 67.9638 73.6966 68.8821C73.8219 68.614 74.0725 68.0776 74.1978 67.8095C74.0556 67.414 74.1809 67.1458 74.4484 67.2732C74.716 67.4005 74.9835 67.5278 75.1257 67.9233C75.268 68.3188 75.1427 68.5869 75.0174 68.8551C74.7837 70.0551 74.1572 71.3959 74.7262 72.9778C74.7262 72.9778 74.7262 72.9778 74.6009 73.2459C74.6009 73.2459 74.6009 73.2459 74.7262 72.9778C74.7262 72.9778 74.7262 72.9778 74.4586 72.8505C74.9768 72.4415 74.8345 72.046 74.9598 71.7778C75.0682 70.846 75.1765 69.9142 75.82 69.2371C75.9453 68.9689 75.9283 68.3053 76.4634 68.5599C76.9985 68.8146 76.8732 69.0827 76.8901 69.7464C76.6565 70.9463 76.565 72.5418 76.3314 73.7417C76.223 74.6735 76.2399 75.3372 76.6497 75.86C77.1679 75.451 76.7581 74.9282 76.8834 74.66C77.0087 74.3919 77.134 74.1237 77.4015 74.251C77.669 74.3783 77.5438 74.6465 77.686 75.042C77.5776 75.9738 77.344 77.1738 77.2356 78.1056C77.0019 79.3055 77.2864 80.0965 78.2313 80.8739C78.3227 79.2785 77.2187 77.4419 78.8984 75.9468C79.0237 75.6786 79.0067 75.015 79.8093 75.3969C80.3444 75.6516 80.0938 76.1879 79.9685 76.4561C79.0745 77.6695 79.2337 78.7287 79.2675 80.0559C79.4267 81.1151 79.5859 82.1742 79.0847 83.2468C78.9594 83.515 79.1016 83.9105 79.3692 84.0378C79.8704 82.9652 79.9787 82.0334 80.2124 80.8334C80.3377 80.5652 80.1954 80.1698 80.5883 80.0289C80.8558 80.1562 81.1233 80.2836 81.2656 80.679C81.1572 81.6109 81.4417 82.4018 81.3333 83.3336C80.7068 84.6744 80.7407 86.0017 81.4349 87.3155C81.5772 87.711 80.6662 88.2608 81.7364 88.7701C82.3629 87.4293 82.9894 86.0885 83.3483 84.6204C83.5989 84.0841 83.8495 83.5477 84.3846 83.8024C85.0449 83.7889 84.4015 84.466 84.5437 84.8615C84.4693 87.1206 82.8065 89.2794 83.9275 91.7796C83.9275 91.7796 83.8022 92.0478 83.6769 92.3159C83.5516 92.5841 83.284 92.4568 83.0165 92.3294C82.6067 91.8066 81.8041 91.4247 81.3943 90.9019C80.3242 90.3926 79.5047 89.3469 79.2032 87.8923C78.4751 85.2513 77.3542 82.7511 76.1079 80.519C74.3097 77.3686 73.0295 73.8093 71.3566 70.3908C70.1103 68.1587 69.5075 65.2495 67.8684 63.1583C66.7813 61.9853 66.2124 60.4034 65.5181 59.0896C63.3101 55.4165 61.6202 51.3343 59.0193 47.802C58.6096 47.2792 58.1998 46.7564 57.9322 46.6291C56.7199 45.7243 55.5075 44.8195 54.8132 43.5057C53.4248 40.8782 51.3759 38.2642 49.5946 35.7774C48.3483 33.5454 47.2782 33.0361 46.208 32.5268C43.2482 30.4626 40.18 29.3302 36.5937 28.6068C34.2028 28.1245 31.8119 27.6423 29.2043 29.0236C28.2934 29.5734 27.5077 29.8551 26.5967 30.4049C24.6326 31.1091 24.2567 31.9136 24.1822 34.1727C24.7003 33.7637 24.6834 33.1001 25.2015 32.6911C25.0593 32.2956 25.5774 31.8866 25.7196 32.2821C25.8619 32.6775 25.7366 32.9457 25.6113 33.2139C24.7173 34.4273 24.0908 35.7681 23.4643 37.1089C22.8378 38.4497 23.1392 39.9043 23.4406 41.359C23.9418 40.2863 23.9249 39.6227 24.0332 38.6909C24.233 36.1636 25.5199 34.8093 27.4671 33.4415C27.8599 33.3006 27.9852 33.0325 28.395 33.5553C28.8048 34.0781 28.4119 34.2189 28.0191 34.3598C26.9828 35.1778 27.0167 36.5051 26.3902 37.8459C26.2649 38.114 26.2819 38.7777 26.1566 39.0458C25.4217 41.3184 25.3472 43.5775 27.1116 45.4006C27.1116 45.4006 27.2538 45.7961 27.3791 45.5279C27.3791 45.5279 27.3791 45.5279 27.2369 45.1324C26.9355 43.6778 27.0269 42.0824 27.3859 40.6142C27.7448 39.1461 27.9616 37.2825 29.3907 36.3237C29.7835 36.1828 30.0341 35.6465 30.4439 36.1693C30.5861 36.5648 30.4608 36.833 30.068 36.9738C28.1546 39.6689 27.8295 42.4643 28.6999 45.5009C28.8591 46.56 28.5915 46.4327 27.6636 46.3189C28.4662 46.7008 28.4832 47.3645 29.2858 47.7464C29.2688 47.0828 29.1266 46.6873 29.3772 46.151C29.4686 44.5556 29.56 42.9601 30.7216 41.874C30.8469 41.6058 31.2228 40.8013 31.6326 41.3241C32.1676 41.5788 31.6495 41.9878 31.3989 42.5241C30.5218 44.4012 30.3051 46.2648 30.6234 48.3831C31.3752 46.7741 31.8595 45.0378 32.3437 43.3015C32.469 43.0334 32.7196 42.4971 32.9872 42.6244C33.5223 42.879 33.2717 43.4153 33.1464 43.6835C32.6621 45.4198 32.1778 47.1561 31.6936 48.8924C31.4599 50.0923 31.3516 51.0241 32.6892 51.6607C32.2287 49.147 32.9635 46.8744 33.4308 44.4745C33.6645 43.2745 34.4502 42.9928 35.3611 42.443C35.754 42.3022 36.1468 42.1613 36.289 42.5568C36.4313 42.9523 36.306 43.2205 35.9131 43.3613C35.395 43.7703 35.0022 43.9111 35.0191 44.5748C33.6578 48.1882 33.0821 51.5199 34.8973 55.3339C35.1479 54.7976 35.2732 54.5294 35.3985 54.2613C35.9911 51.5932 37.5285 49.7025 39.6011 48.0666C39.9939 47.9257 40.1192 47.6576 40.6543 47.9122C40.7965 48.3077 40.6712 48.5758 40.2784 48.7167C40.0278 49.253 39.635 49.3938 39.1168 49.8028C37.4371 51.298 36.56 53.1751 36.218 55.3069C36.1097 56.2387 35.8591 56.775 35.7507 57.7068C35.3748 58.5113 35.517 58.9068 36.1943 59.5569C36.3196 59.2887 36.3196 59.2887 36.4449 59.0206C36.8039 57.5524 37.5557 55.9435 38.1822 54.6027C38.4328 54.0664 38.8256 53.9255 39.0932 54.0529C39.6282 54.3075 39.3776 54.8438 39.2523 55.112C39.0017 55.6483 38.7511 56.1846 38.5005 56.7209C37.7487 58.3299 37.1222 59.6707 37.1731 61.6616C37.2984 61.3935 37.2984 61.3935 37.4237 61.1253C37.874 58.0617 40.3394 56.2849 42.0022 54.1261C42.1275 53.858 42.6456 53.449 42.7878 53.8445C43.3229 54.0991 42.8048 54.5081 42.6795 54.7763C42.1783 55.8489 41.4096 56.7942 40.3733 57.6122C38.0502 59.7845 38.2601 62.8346 38.2026 65.7573C38.5785 64.9528 38.6869 64.021 38.9375 63.4847C39.4217 61.7484 40.441 60.2668 41.1928 58.6578C41.4434 58.1215 41.9616 57.7125 42.4966 57.9671C43.2992 58.3491 42.3883 58.899 42.263 59.1671C40.4749 61.5941 39.757 64.5303 39.0391 67.4666C38.9138 67.7347 38.6632 68.271 39.073 68.7938C39.4489 67.9894 39.5572 67.0576 39.6656 66.1258C39.9907 63.3303 41.3859 61.0442 42.9233 59.1536C43.4415 58.7446 43.8174 57.9401 44.2271 58.4629C44.9044 59.1131 43.9935 59.6629 43.7429 60.1992C42.2054 62.0898 41.203 64.2351 40.7357 66.635C40.5021 67.835 41.071 69.4169 39.3744 70.2484L39.5166 70.6439C39.8011 71.4349 40.0855 72.2259 40.6376 73.1442C40.7629 72.876 40.7629 72.876 40.8882 72.6078C40.8204 69.9533 42.2156 67.6671 43.3433 65.2537C43.5939 64.7174 44.112 64.3084 44.5049 64.1676C44.6302 63.8994 45.023 63.7586 45.1652 64.154C45.4328 64.2814 45.3075 64.5495 45.1822 64.8177C44.5388 65.4948 44.2882 66.0312 43.9123 66.8356C42.9099 68.9809 42.0328 70.858 41.6908 72.9898C41.7077 73.6535 41.4571 74.1898 41.7416 74.9807C43.1301 77.6083 45.5548 79.4178 46.9433 82.0454C47.3531 82.5682 47.37 83.2318 48.1726 83.6138C48.281 82.682 48.3893 81.7502 48.3724 81.0866C48.1963 79.3638 48.6806 77.6275 49.4323 76.0185C49.6829 75.4822 49.8082 75.2141 50.3433 75.4687C50.8784 75.7234 50.3603 76.1323 50.5025 76.5278C49.8929 78.5323 49.6762 80.3959 49.4595 82.2595C49.4764 82.9231 49.9031 84.1096 48.7246 84.5321C48.3318 84.6729 48.5993 84.8003 48.5993 84.8003C49.5611 86.2413 50.5229 87.6824 52.1281 88.4464C51.7928 85.6645 52.5277 83.3919 53.6554 80.9784C53.7807 80.7103 54.0313 80.174 54.5663 80.4286C54.8339 80.5559 54.9761 80.9514 54.7255 81.4877C54.4749 82.0241 54.2243 82.5604 53.9737 83.0967C53.0966 84.9738 53.0221 87.2329 53.3405 89.3512C53.4997 90.4103 54.9626 90.7787 55.5146 91.697C55.7822 91.8244 55.7822 91.8243 55.9244 92.2198C55.9244 92.2198 55.7991 92.488 56.192 92.3472L56.3172 92.079C55.8567 89.5653 56.1987 87.4335 57.3264 85.0201C57.577 84.4837 57.4178 83.4246 58.2204 83.8066C58.7555 84.0612 58.3796 84.8657 58.129 85.402C57.3941 87.6746 56.9268 90.0746 57.3874 92.5883C57.5296 92.9838 57.0115 93.3928 57.4213 93.9156C58.7928 95.8795 60.4319 97.9707 62.5722 98.9893C63.1073 99.2439 63.5001 99.1031 63.7507 98.5668C64.77 97.0852 66.0569 95.7308 67.3437 94.3765C68.1125 93.4312 69.0234 92.8814 70.0597 92.0634C70.4525 91.9226 70.8454 91.7817 70.9876 92.1772C71.3974 92.7 70.737 92.7135 70.6117 92.9817C69.826 93.2633 69.1826 93.9405 68.4139 94.8858C69.3418 94.9996 70.1275 94.718 70.6456 94.309C71.8072 93.2228 73.111 92.5321 74.1472 91.7141C74.54 91.5733 75.0582 91.1643 75.2004 91.5598C75.3427 91.9553 75.3427 91.9553 75.7355 91.8144C76.1283 91.6736 76.3789 91.1373 76.914 91.3919C77.3068 91.2511 77.5744 91.3784 77.7166 91.7739C77.8588 92.1694 77.466 92.3102 77.0732 92.4511C76.1453 92.3372 75.7694 93.1417 75.2512 93.5507C75.1259 93.8189 74.4656 93.8324 74.8753 94.3552C75.1429 94.4825 75.8202 95.1327 76.0708 94.5963C76.1961 94.3282 76.4467 93.7919 76.8395 93.651C77.4829 92.9739 77.8588 92.1694 78.6445 91.8877C79.1626 91.4787 79.4302 91.606 79.8399 92.1288C79.9822 92.5243 80.1244 92.9198 79.7316 93.0607C78.1433 92.9604 77.6591 94.6966 76.6228 95.5146C77.6929 96.0239 78.6378 96.8014 79.3151 97.4515C79.7249 97.9743 80.1177 97.8335 80.3852 97.9608C81.9735 98.0611 81.9735 98.0611 83.3857 96.4386C82.8506 96.184 82.6 96.7203 82.0819 97.1293C81.689 97.2701 81.4384 97.8065 81.2962 97.411C80.8864 96.8882 81.2792 96.7473 81.6721 96.6065C82.1902 96.1975 82.8336 95.5203 82.5492 94.7294C82.5492 94.7294 82.6745 94.4612 82.7998 94.193C83.7107 93.6432 83.8191 92.7114 84.4625 92.0343C85.2313 91.0889 86 90.1436 87.0363 89.3256C87.4291 89.1848 87.9472 88.7758 88.357 89.2986C88.7668 89.8214 88.3739 89.9622 87.8558 90.3712C87.3207 90.1166 86.552 91.0619 85.8002 92.6709C86.5859 92.3892 87.2462 92.3757 87.6221 91.5712C88.1233 90.4986 88.8921 89.5532 89.9283 88.7353C90.4465 88.3263 91.073 86.9855 92.16 88.1584C92.16 88.1584 92.5529 88.0176 92.6782 87.7494C93.071 87.6086 93.3216 87.0722 93.7144 86.9314C94.1073 86.7906 94.3579 86.2543 94.7676 86.7771C95.3027 87.0317 94.7846 87.4407 94.6593 87.7089C94.3917 87.5815 94.2664 87.8497 94.1411 88.1179C94.2834 88.5133 94.534 87.977 94.534 87.977C94.9268 87.8362 95.4449 87.4272 95.8378 87.2863C96.2306 87.1455 96.7487 86.7365 96.891 87.132C97.3008 87.6548 96.5151 87.9365 96.1222 88.0773C95.2113 88.6272 94.175 89.4451 93.5316 90.1223C94.8693 90.7589 94.6017 90.6316 95.638 89.8136C96.6743 88.9956 97.8358 87.9095 98.8721 87.0915C99.2649 86.9506 99.7831 86.5416 99.9253 86.9371C100.335 87.4599 99.5494 87.7416 99.1566 87.8824C97.8528 88.5731 96.8165 89.3911 96.0478 90.3364C96.3153 90.4637 96.5828 90.5911 96.7081 90.3229C98.0119 89.6322 99.0313 88.1506 100.21 87.7281L100.335 87.4599C99.9084 86.2735 100.142 85.0735 99.3225 84.0279C96.5624 79.4364 92.7661 75.663 90.0061 71.0715C88.4923 68.7122 86.4604 66.7618 85.7322 64.1207C85.4478 63.3297 85.1633 62.5388 84.486 61.8886C83.2567 60.3202 82.4202 58.611 81.5837 56.9017C80.7303 54.5288 79.6263 52.6922 78.38 50.4602C76.5818 47.3098 74.6582 44.4276 72.4671 41.4181C70.276 38.4086 67.6921 35.5399 63.9635 34.421C60.8953 33.2886 57.4682 33.6244 54.2916 33.4238C52.8456 33.7189 52.3275 34.1279 52.5205 36.5144C52.4122 37.4462 53.2148 37.8281 53.6245 38.3509ZM106.986 104.72C106.434 103.802 106.275 102.743 105.598 102.093C103.833 100.27 102.194 98.1785 100.43 96.3554C98.9331 94.6597 97.8291 92.8231 95.1707 92.2135C93.3149 91.9859 91.8519 91.6174 90.2806 92.1808C88.7092 92.7441 87.4224 94.0985 85.7088 94.2663C86.5283 95.3119 87.3479 96.3575 87.6323 97.1485C88.628 99.9169 90.6599 101.867 92.0484 104.495C92.3329 105.286 93.1355 105.668 93.6706 105.922C94.2056 106.177 94.314 105.245 94.7068 105.104C97.4228 102.791 100.047 102.074 103.383 103.333C104.453 103.843 105.398 104.62 106.986 104.72ZM105.594 91.6018C106.397 91.9838 107.074 92.6339 107.877 93.0159C110.034 94.6981 111.155 97.1984 112.669 99.5577C112.811 99.9532 112.953 100.349 113.471 99.9397C116.597 98.1494 119.723 96.359 123.702 96.9416C123.292 96.4188 122.757 96.1642 122.615 95.7687C120.976 93.6774 120.122 91.3045 117.965 89.6223C115.398 87.4173 111.561 87.2302 108.561 88.7524C107.257 89.443 106.631 90.7838 105.594 91.6018ZM141.214 94.4585C140.929 93.6675 140.519 93.1447 140.11 92.6219C138.88 91.0535 137.793 89.8806 136.439 88.5803C135.352 87.4074 134.014 86.7708 132.676 86.1341C130.536 85.1155 128.287 85.0288 125.947 86.5374C124.518 87.4963 124.301 89.3599 125.656 90.6601C127.546 92.215 129.435 93.7699 130.807 95.7338C131.359 96.6521 132.019 96.6386 132.93 96.0888C135.646 93.7756 138.254 92.3943 141.214 94.4585ZM158.668 94.8981C158.258 94.3753 158.116 93.9798 157.581 93.7252C156.903 93.0751 156.226 92.4249 155.799 91.2385C155.373 90.052 154.804 88.4701 153.073 87.9743C152.806 87.847 152.538 87.7197 152.396 87.3242C150.364 85.3738 146.652 84.9186 144.312 86.4272C144.187 86.6954 143.919 86.568 144.062 86.9635C144.062 86.9635 144.079 87.6272 144.329 87.0909C144.455 86.8227 144.705 86.2864 144.597 87.2182C144.614 87.8818 144.631 88.5455 145.04 89.0683C145.735 90.382 146.947 91.2868 148.034 92.4598C148.711 93.1099 149.246 93.3645 150.157 92.8147C150.676 92.4057 151.603 92.5195 152.139 92.7742C154.279 93.7928 156.277 94.4159 158.668 94.8981ZM86.5081 110.053C84.2426 109.302 82.1361 109.611 79.9044 110.188C78.8512 110.342 77.815 111.16 77.3138 112.233C76.562 113.842 76.9718 114.365 78.4347 114.733C81.7535 115.329 84.2358 114.216 86.8265 112.171C88.3809 110.944 88.1133 110.817 86.5081 110.053ZM114.433 101.381C114.86 102.567 115.663 102.949 116.716 102.795C118.304 102.895 119.625 102.868 120.945 102.841C122.659 102.673 123.821 101.587 124.84 100.105C125.216 99.301 124.948 99.1737 124.413 98.919C121.47 97.5185 118.737 99.168 116.255 100.281C115.469 100.563 115.361 101.495 114.433 101.381ZM106.109 106.597C104.772 105.961 103.969 105.579 103.166 105.197C100.759 104.051 98.3846 104.232 96.1867 106.137C95.7939 106.277 95.2758 106.686 95.6856 107.209C95.8278 107.605 96.2376 108.127 96.8979 108.114C99.8069 108.187 102.699 107.597 106.109 106.597ZM134.143 96.9936C135.623 98.0257 138.389 97.7034 139.944 96.4765C140.462 96.0675 140.32 95.672 139.91 95.1492C138.037 94.2579 135.02 95.1164 134.143 96.9936ZM119.276 84.018C118.24 84.836 117.596 85.5131 116.56 86.3311C117.237 86.9813 118.04 87.3632 118.45 87.886C119.127 88.5362 119.52 88.3953 119.628 87.4635C119.736 86.5317 119.577 85.4726 119.276 84.018ZM155.525 96.0248C154.187 95.3882 152.724 95.0197 151.404 95.0468C151.011 95.1876 150.476 94.933 150.493 95.5966C150.367 95.8648 150.777 96.3876 151.045 96.5149C151.58 96.7695 152.115 97.0242 152.901 96.7425C153.419 96.3335 154.472 96.1792 155.525 96.0248ZM98.1881 91.355C99.9355 92.5144 100.42 90.7781 101.331 90.2283C101.724 90.0875 101.581 89.692 101.439 89.2965C101.297 88.901 100.904 89.0418 100.779 89.31C99.8677 89.8598 99.099 90.8052 98.1881 91.355ZM120.607 89.5683C121.46 91.9412 122.73 89.9232 123.658 90.037C122.838 88.9914 121.409 89.9502 120.607 89.5683ZM132.608 83.4796C133.269 83.466 133.428 84.5252 133.804 83.7207C134.055 83.1844 134.573 82.7754 134.698 82.5072C134.823 82.2391 135.216 82.0982 134.949 81.9709C134.806 81.5754 134.413 81.7163 134.288 81.9844C133.645 82.6616 133.127 83.0706 132.608 83.4796ZM134.088 84.5117C134.356 84.639 134.623 84.7663 134.891 84.8936C135.426 85.1483 135.677 84.612 135.927 84.0756C136.053 83.8075 135.91 83.412 135.643 83.2847C135.108 83.03 134.982 83.2982 134.857 83.5663C134.999 83.9618 134.607 84.1027 134.088 84.5117ZM117.169 84.3267C116.526 85.0038 115.615 85.5537 114.972 86.2308L115.239 86.3581C115.883 85.681 116.793 85.1312 117.169 84.3267ZM72.752 94.0003C74.0727 93.9732 74.4486 93.1688 74.8245 92.3643C74.1811 93.0414 73.663 93.4504 72.752 94.0003ZM75.3427 91.9553C75.3427 91.9553 75.2174 92.2234 75.3427 91.9553C75.2174 92.2234 75.2174 92.2234 75.2174 92.2234C75.2174 92.2234 75.2174 92.2234 75.3427 91.9553C75.4849 92.3508 75.2174 92.2234 75.3427 91.9553ZM115.737 48.8989C115.737 48.8989 115.611 49.1671 115.737 48.8989C115.611 49.1671 115.611 49.1671 115.737 48.8989C115.611 49.1671 115.737 48.8989 115.737 48.8989ZM31.1585 48.6377C31.1585 48.6377 30.7657 48.7785 31.1585 48.6377C30.7657 48.7785 31.0332 48.9059 31.1585 48.6377C31.0332 48.9059 31.0332 48.9059 31.1585 48.6377C31.0332 48.9059 31.0332 48.9059 31.1585 48.6377ZM49.3511 83.1913C49.3511 83.1913 49.2089 82.7958 49.3511 83.1913C49.2089 82.7958 49.0836 83.064 49.3511 83.1913C49.0836 83.064 49.0836 83.064 49.3511 83.1913Z" fill="#040404"/>
<path d="M119.082 84.2075C119.242 85.2628 119.671 86.445 119.436 87.6405C119.326 88.5689 118.932 88.7091 118.251 88.0611C117.57 87.4131 117.033 87.1592 116.352 86.5113C117.268 85.9637 118.041 85.0221 119.082 84.2075Z" fill="#040404"/>
<path d="M150.651 84.7715C151.297 84.0964 152.085 83.8157 152.731 83.1406C153.016 83.9295 154.09 84.4378 153.05 85.2533C152.924 85.5207 153.192 85.6477 153.192 85.6477C153.855 85.6345 153.998 86.0289 153.478 86.4367C152.958 86.8444 152.689 86.7173 152.547 86.3229C152.136 85.8013 151.725 85.2798 150.651 84.7715C150.92 84.8986 150.651 84.7715 150.651 84.7715Z" fill="#040404"/>
<path d="M97.9368 91.3545C98.8536 90.8073 99.6273 89.8662 100.544 89.319C100.67 89.052 101.066 88.9119 101.209 89.3057C101.352 89.6996 101.621 89.8265 101.099 90.2336C100.183 90.7808 99.6949 92.5095 97.9368 91.3545Z" fill="#040404"/>
<path d="M120.351 89.7553C121.547 89.9964 122.709 88.9109 123.404 90.224C122.475 90.1102 121.205 92.127 120.351 89.7553Z" fill="#040404"/>
<path d="M132.429 83.8006C132.951 83.3939 133.6 82.7205 134.122 82.3138C134.248 82.0471 134.644 81.9072 134.788 82.3008C135.057 82.4276 134.931 82.6944 134.535 82.8343C134.283 83.3678 133.76 83.7745 133.634 84.0413C133.255 84.8415 132.699 83.9275 132.429 83.8006Z" fill="#040404"/>
<path d="M132.938 82.0585C132.686 82.592 132.164 82.9987 132.037 83.2654C131.659 84.0657 131.119 83.812 130.58 83.5583C131.228 82.8849 131.607 82.0847 132.938 82.0585C132.669 81.9317 132.938 82.0585 132.938 82.0585Z" fill="#040404"/>
<path d="M133.893 84.8372C134.288 84.6971 134.413 84.4299 134.808 84.2899C135.202 84.1498 135.185 83.4884 135.597 84.0097C135.866 84.1367 136.009 84.531 135.883 84.7981C135.757 85.0653 135.505 85.5996 134.842 85.6126C134.699 85.2184 134.43 85.0913 133.893 84.8372Z" fill="#040404"/>
<path d="M116.995 84.4978C116.489 85.5637 115.695 85.8434 115.044 86.5163L114.774 86.3896C115.551 85.4503 116.074 85.044 116.995 84.4978Z" fill="#040404"/>
<path d="M72.4893 93.7679C73.4093 93.2216 73.9325 92.8152 74.5822 92.1422C74.2028 92.9419 73.8233 93.7416 72.4893 93.7679Z" fill="#040404"/>
<path d="M93.4146 88.4828C93.0346 89.2822 92.5107 89.6885 91.7161 89.9682C92.3667 89.2954 92.7466 88.496 93.4146 88.4828Z" fill="#040404"/>
<path d="M69.453 61.4537C69.3275 61.7208 69.8649 61.9754 69.4707 62.1151C69.4707 62.1151 69.202 61.9878 69.0588 61.5934C69.3275 61.7208 69.3275 61.7208 69.453 61.4537Z" fill="#040404"/>
<path d="M93.4166 88.4903C93.2725 88.0968 93.5428 88.2238 93.6689 87.9573C93.813 88.3508 93.813 88.3508 93.4166 88.4903Z" fill="#040404"/>
<path d="M94.4609 87.6826C94.4609 87.6826 94.2083 88.2158 94.0651 87.8226C94.1914 87.556 94.1914 87.556 94.4609 87.6826C94.5872 87.416 94.4609 87.6826 94.4609 87.6826Z" fill="#040404"/>
<path d="M75.1026 91.748C74.9762 92.014 75.2489 92.1417 75.1026 91.748C74.9762 92.014 74.9762 92.014 74.9762 92.014C74.9762 92.014 74.9762 92.014 75.1026 91.748C74.9762 92.014 75.1026 91.748 75.1026 91.748Z" fill="#040404"/>
<path d="M54.3907 38.4039C54.3907 38.4039 54.2646 38.6717 54.3907 38.4039C53.9969 38.5451 53.9969 38.5451 54.3907 38.4039C54.123 38.2773 54.123 38.2773 54.3907 38.4039Z" fill="#040404"/>
<path d="M61.6353 47.8214L61.5089 48.0874C61.5089 48.0874 61.2362 47.9597 61.6353 47.8214C61.3626 47.6937 61.6353 47.8214 61.6353 47.8214Z" fill="#040404"/>
<path d="M72.0292 66.9658L71.9023 67.2334C71.508 67.3756 71.6349 67.1079 72.0292 66.9658C71.6349 67.1079 72.0292 66.9658 72.0292 66.9658Z" fill="#040404"/>
<path d="M132.672 81.9412C132.798 81.6734 132.798 81.6734 132.672 81.9412C133.066 81.8 132.94 82.0679 132.672 81.9412C132.94 82.0679 132.672 81.9412 132.672 81.9412Z" fill="#040404"/>
<path d="M114.419 46.5178L114.292 46.786C114.025 46.6602 114.025 46.6602 114.419 46.5178C114.025 46.6602 114.025 46.6602 114.419 46.5178Z" fill="#040404"/>
<path d="M67.7079 58.9685C67.8495 59.363 67.8495 59.363 67.7079 58.9685C67.8495 59.363 67.5818 59.2364 67.7079 58.9685C67.5818 59.2364 67.5818 59.2364 67.7079 58.9685Z" fill="#040404"/>
<path d="M150.798 85.1513C150.53 85.0247 150.53 85.0247 150.798 85.1513C150.656 84.7568 150.656 84.7568 150.798 85.1513C150.656 84.7568 150.924 84.8835 150.798 85.1513Z" fill="#040404"/>
<path d="M31.5436 48.3193C31.4176 48.5854 31.4176 48.5854 31.5436 48.3193C31.4176 48.5854 31.4176 48.5854 31.5436 48.3193C31.4176 48.5854 31.1459 48.4577 31.5436 48.3193C31.1459 48.4577 31.5436 48.3193 31.5436 48.3193Z" fill="#040404"/>
<path d="M49.258 82.8218C48.9891 82.6939 48.9891 82.6939 49.258 82.8218C48.9891 82.6939 49.1137 82.4274 49.258 82.8218C49.1137 82.4274 49.258 82.8218 49.258 82.8218Z" fill="#040404"/>
<path d="M127.456 65.6318L127.329 65.8994C126.935 66.0415 127.062 65.7739 127.456 65.6318C127.062 65.7739 127.062 65.7739 127.456 65.6318Z" fill="#040404"/>
<path d="M56.8757 90.7801C56.8757 90.7801 56.7496 91.0479 56.8757 90.7801C56.4819 90.9213 56.4819 90.9213 56.8757 90.7801C56.608 90.6535 56.608 90.6535 56.8757 90.7801Z" fill="#040404"/>
<path d="M128.335 83.4437C128.335 83.4437 128.211 83.7102 128.335 83.4437C128.066 83.3158 128.066 83.3158 128.335 83.4437Z" fill="#040404"/>
<path d="M59.6547 90.4924C60.0172 89.0325 61.0463 87.5592 61.4089 86.0993C61.5354 85.8326 61.5184 85.1727 62.0585 85.4259C62.5986 85.6792 62.4721 85.9459 62.3456 86.2125C61.966 87.0125 61.983 87.6724 61.6035 88.4724C60.8444 90.0724 60.7519 91.6589 60.9295 93.3721C61.0731 93.7654 61.3602 94.552 60.6935 94.5654C59.9004 94.8454 60.2799 94.0454 60.1364 93.6522C59.9758 92.5989 59.9418 91.279 58.8615 90.7724C58.5915 90.6458 58.4479 90.2525 58.3044 89.8592C57.7302 88.286 59.3749 84.8195 60.8177 83.8661C61.2142 83.7261 61.3408 83.4595 61.8809 83.7127C62.0244 84.106 61.8979 84.3727 61.7714 84.6394C60.2191 86.5193 59.7301 88.2459 59.6547 90.4924Z" fill="#040404"/>
<path d="M52.1567 75.4032C52.6651 74.3381 53.1734 73.2729 54.0978 72.7266C54.4964 72.5866 55.0222 72.1802 55.1666 72.5728C55.5827 73.0916 55.184 73.2316 54.9298 73.7642C52.9887 76.4408 52.2609 79.3563 52.0762 82.5242C52.2207 82.9167 52.2381 83.5756 51.5679 83.5893C50.8977 83.6031 50.6087 82.818 50.8629 82.2854C51.065 79.7763 51.14 77.5335 52.1567 75.4032Z" fill="#040404"/>
<path d="M47.5086 72.1632C48.5256 70.0331 49.9763 69.0805 50.8837 67.8755C51.0108 67.6092 51.2825 67.7354 51.5541 67.8617C51.8258 67.9879 51.9703 68.3804 51.8432 68.6467C51.4618 69.4454 50.9359 69.8517 50.5545 70.6505C48.8669 72.7944 47.9944 75.317 48.064 77.952C47.9369 78.2183 48.0814 78.6108 47.8097 78.4846C47.4109 78.6246 47.1393 78.4983 46.9947 78.1058C46.5785 77.5871 46.6882 76.6621 46.9425 76.1296C46.7632 74.4196 47.3988 73.0882 47.5086 72.1632Z" fill="#040404"/>
<path d="M49.1311 62.7432C49.5491 63.2611 49.4216 63.5272 48.8937 63.9334C47.4554 65.5439 46.5626 67.4063 45.5423 69.5349C45.0321 70.5991 44.7948 71.7893 44.5574 72.9795C44.4298 73.2456 44.5751 73.6376 43.902 73.6518C43.6292 73.5258 43.484 73.1338 43.6115 72.8677C44.0508 69.1711 45.4361 65.5863 48.3304 63.0234C48.458 62.7573 48.8583 62.6172 49.1311 62.7432Z" fill="#040404"/>
<path d="M46.6865 69.7891C47.0684 68.9905 47.0509 68.3321 47.9771 67.7858C48.3765 67.6457 48.5038 67.3796 48.6487 67.7719C48.9208 67.898 48.7935 68.1642 48.6662 68.4303C47.121 70.9659 46.2474 73.4876 45.9181 76.2616C45.7908 76.5277 45.9356 76.92 45.264 76.934C44.9919 76.8078 44.7197 76.6817 44.847 76.4156C44.6847 75.3648 44.7945 74.4401 45.1764 73.6416C45.8129 72.3107 46.05 71.1199 46.6865 69.7891Z" fill="#040404"/>
<path d="M67.4591 91.9587C66.8077 92.6316 66.5712 93.8238 65.6489 94.3702C65.1243 94.7766 64.7266 94.9166 64.7438 95.5759C64.617 95.8424 64.4901 96.1088 64.0924 96.2488C63.8215 96.1224 63.6774 95.7295 63.8043 95.4631C64.0408 94.2709 64.4213 93.4716 64.6578 92.2794C64.9114 91.7466 65.0383 91.4801 65.292 90.9473C65.4188 90.6808 65.4188 90.6808 65.5457 90.4144C65.9434 90.2744 66.0874 90.6673 65.9606 90.9337C65.9778 91.593 66.3755 91.453 66.6292 90.9201C66.7561 90.6537 66.7388 89.9944 67.2806 90.2473C67.9665 90.893 67.9837 91.5523 67.4591 91.9587Z" fill="#040404"/>
<path d="M56.4579 80.7587C56.8569 80.6186 56.9667 79.6938 57.4929 79.2875C57.892 79.1475 58.0192 78.8812 58.1638 79.2736C58.4357 79.3998 58.3085 79.6661 58.1813 79.9323C56.8918 81.9359 55.8742 84.0657 56.0712 86.4341C55.944 86.7003 55.8168 86.9666 55.8168 86.9666C55.4178 87.1066 55.2731 86.7142 55.4003 86.448C54.9664 85.2707 55.3305 83.8134 55.5675 82.6223C55.8219 82.0898 56.0763 81.5573 56.4579 80.7587Z" fill="#040404"/>
<path d="M65.2938 88.2925C64.5311 89.8902 63.2252 91.2354 63.2774 93.2118C63.1503 93.478 63.1503 93.478 62.7516 93.6181C62.4799 93.4918 62.2083 93.3656 62.3354 93.0993C62.0291 91.6554 62.393 90.1978 63.1731 89.2589C63.4273 88.7264 64.0802 88.0538 64.6061 87.6475C64.7332 87.3812 65.259 86.9749 65.8022 87.2274C66.3454 87.4799 65.8196 87.8862 65.6925 88.1525C65.4209 88.0263 65.2938 88.2925 65.2938 88.2925Z" fill="#040404"/>
<path d="M79.3795 95.1394C79.1093 95.0128 78.9656 94.6196 79.0922 94.353C79.8688 93.4132 80.9157 92.6 81.6924 91.6602C81.819 91.3936 82.0892 91.5202 82.3595 91.6468C82.6297 91.7733 82.5031 92.0399 82.3765 92.3065C81.5999 93.2464 80.8233 94.1862 79.903 94.7328C79.6498 95.266 79.3795 95.1394 79.3795 95.1394Z" fill="#040404"/>
<path d="M99.8154 63.0574C99.8508 64.3736 99.3407 65.4378 98.958 66.236C98.3381 68.2244 97.4453 70.0868 96.5525 71.9492C96.4249 72.2153 96.1699 72.7474 95.6243 72.4955C95.0787 72.2435 95.6066 71.8374 95.4613 71.4454C96.2089 69.1909 97.2292 67.0625 97.9767 64.808C98.3594 64.0099 98.8872 63.6037 99.8154 63.0574Z" fill="#040404"/>
<path d="M97.8774 75.2445C98.515 73.9142 98.8798 72.4578 99.645 70.8614C100.028 70.0632 100.283 69.531 101.211 68.9848C101.338 68.7187 101.738 68.5786 102.011 68.7046C102.284 68.8306 102.156 69.0966 102.029 69.3627C100.591 70.9733 100.098 72.6957 99.4784 74.6841C99.2233 75.2163 98.9683 75.7484 98.568 75.8885C98.1678 76.0286 98.1678 76.0286 97.8951 75.9026C97.2221 75.9168 97.3496 75.6507 97.8774 75.2445Z" fill="#040404"/>
<path d="M92.9321 59.7131C92.5675 61.1697 91.803 62.7665 91.4384 64.2231C91.311 64.4893 91.3286 65.1476 90.6563 65.1616C90.1115 64.9095 90.6387 64.5033 90.4937 64.1111C90.8231 61.3379 91.8424 59.2089 92.9891 56.8138C93.1165 56.5476 93.3713 56.0154 93.7888 56.5336C94.3336 56.7857 94.2062 57.0518 93.9514 57.5841C93.6965 58.1163 93.3143 58.9147 92.9321 59.7131Z" fill="#040404"/>
<path d="M104.132 78.5847C103.621 79.6488 103.111 80.7129 102.6 81.777C102.473 82.043 102.217 82.575 101.671 82.3232C101.125 82.0714 101.654 81.6653 101.781 81.3992C102.402 79.4112 103.149 77.1571 104.589 75.5467C104.716 75.2807 105.099 74.4826 105.518 75.0004C106.064 75.2522 105.535 75.6584 105.28 76.1904C104.897 76.9885 104.514 77.7866 104.132 78.5847Z" fill="#040404"/>
<path d="M101.787 78.7495C101.66 79.0158 101.405 79.5483 100.862 79.2958C100.591 79.1695 100.845 78.6369 100.701 78.2444C101.319 76.254 102.064 73.9974 102.41 71.8808C102.664 71.3482 102.791 71.0819 103.334 71.3345C103.878 71.587 103.352 71.9933 103.496 72.3859C103.15 74.5025 102.405 76.7591 101.787 78.7495Z" fill="#040404"/>
<path d="M95.5739 67.8688C95.3193 68.4012 95.1921 68.6674 94.92 68.5412C94.6479 68.4151 94.3759 68.2889 94.5031 68.0228C94.85 65.9072 95.4688 63.9177 96.4871 61.7882C96.6144 61.522 97.141 61.1158 97.4131 61.2419C97.9572 61.4942 97.4306 61.9004 97.3033 62.1666C96.6844 64.1561 96.0655 66.1455 95.5739 67.8688Z" fill="#040404"/>
<path d="M84.3248 47.0155C83.8151 48.08 83.1781 49.4106 83.2133 50.7272C83.0859 50.9933 83.2309 51.3855 82.831 51.5256C82.4312 51.6656 82.4136 51.0073 82.541 50.7412C82.6156 48.5002 83.5075 46.6374 84.6718 44.9006C84.7992 44.6345 85.199 44.4944 85.4714 44.6204C85.7439 44.7465 85.6165 45.0126 85.4891 45.2787C84.8344 45.9511 84.5796 46.4833 84.3248 47.0155Z" fill="#040404"/>
<path d="M93.837 66.0412C93.7099 66.3075 93.5829 66.5738 93.1843 66.7139C92.9129 66.5876 92.7684 66.195 92.7684 66.195C93.1149 64.0783 93.4614 61.9616 94.3508 60.0974C94.4779 59.8311 94.6049 59.5648 94.8764 59.6911C95.4193 59.9437 95.1652 60.4763 95.0382 60.7426C94.5299 61.8078 94.2931 62.9993 94.0564 64.1908C94.0737 64.8497 94.0911 65.5086 93.837 66.0412Z" fill="#040404"/>
<path d="M88.3969 54.8825C88.0145 55.6809 87.6322 56.4792 86.8498 57.4176C86.7224 57.6837 86.5949 57.9498 86.3224 57.8238C86.0499 57.6977 86.1773 57.4316 86.3048 57.1655C86.7969 55.4429 87.8342 53.9723 88.1989 52.5157C88.3263 52.2496 88.5989 52.3756 88.7263 52.1095C88.9989 52.2356 89.144 52.6277 89.0165 52.8938C89.0341 53.552 88.3792 54.2243 88.3969 54.8825Z" fill="#040404"/>
<path d="M85.9113 49.1126C86.0386 48.8465 86.4382 48.7064 86.5655 48.4402L86.965 48.3002C87.2373 48.4263 87.1099 48.6924 87.1099 48.6924C86.4908 50.6817 85.7268 52.2786 85.1077 54.2679C84.9803 54.534 84.9803 54.534 84.5808 54.6741C84.3086 54.548 84.0364 54.4219 84.1637 54.1557C84.2735 53.2311 84.6555 52.4326 84.6379 51.7742C85.1473 50.7096 85.8015 50.0372 85.9113 49.1126Z" fill="#040404"/>
<path d="M77.9769 45.2571C78.341 43.7997 78.8498 42.7347 79.4857 41.4036C79.6129 41.1373 79.8673 40.6049 80.2663 40.4648C80.6653 40.3248 80.6653 40.3248 80.9371 40.451C81.2089 40.5772 81.0817 40.8434 80.9545 41.1097C80.3186 42.4408 79.5555 44.0382 79.1913 45.4956C78.538 46.1681 78.2487 45.3833 77.9769 45.2571Z" fill="#040404"/>
<path d="M106.538 81.7212C105.756 82.6597 105.247 83.7242 104.737 84.7888C104.61 85.0549 104.355 85.5872 104.083 85.4611C103.538 85.209 103.666 84.9429 103.92 84.4106C104.43 83.346 105.067 82.0153 105.576 80.9508C105.831 80.4185 106.086 79.8862 106.63 80.1384C107.32 80.7827 106.793 81.1889 106.538 81.7212Z" fill="#040404"/>
<path d="M80.8441 44.0299C81.2257 43.2312 81.4801 42.6988 82.1335 42.0263C82.5325 41.8862 82.6597 41.62 82.8044 42.0124C83.0762 42.1386 82.949 42.4048 82.8218 42.6711C81.914 43.876 81.0062 45.081 81.1857 46.7907C81.0585 47.057 80.9313 47.3232 80.6595 47.197C80.2604 47.337 80.1158 46.9446 80.243 46.6784C79.9537 45.8935 80.4625 44.8286 80.8441 44.0299Z" fill="#040404"/>
<path d="M90.4068 57.5011C90.0245 58.2993 89.7696 58.8315 89.5147 59.3636C89.3873 59.6297 89.2599 59.8958 88.9871 59.7697C88.7144 59.6435 88.8418 59.3774 88.9692 59.1114C89.2062 57.9209 89.8433 56.5906 90.4805 55.2602C90.6079 54.9941 90.7354 54.728 91.0081 54.8542C91.2809 54.9803 91.1535 55.2464 91.2988 55.6386C91.3167 56.2969 90.6616 56.9689 90.4068 57.5011Z" fill="#040404"/>
<path d="M103.409 52.3394C104.174 50.7426 104.666 49.0198 105.558 47.1569C105.685 46.8908 105.94 46.3585 106.485 46.6106C107.029 46.8627 106.775 47.395 106.647 47.6611C106.01 48.9918 105.646 50.4484 104.609 51.9192C104.354 52.4514 103.954 52.5915 103.409 52.3394Z" fill="#040404"/>
<path d="M107.114 52.1474C106.86 52.6799 106.478 53.4786 106.224 54.011C106.097 54.2772 105.969 54.5435 105.426 54.2911C105.154 54.1649 105.281 53.8987 105.136 53.5063C105.772 52.1751 106.137 50.7178 106.773 49.3867C106.9 49.1205 107.154 48.588 107.698 48.8404C107.97 48.9666 107.987 49.6252 107.86 49.8914C107.75 50.8163 107.496 51.3488 107.114 52.1474Z" fill="#040404"/>
<path d="M122.624 79.0226C122.497 79.2887 122.369 79.5548 122.242 79.8209C122.115 80.0871 121.86 80.6193 121.443 80.1008C120.898 79.8484 121.425 79.4423 121.552 79.1762C122.061 78.1117 122.298 76.921 122.68 76.1226C122.935 75.5904 123.189 75.0581 123.462 75.1843C124.007 75.4367 123.752 75.969 123.497 76.5012C123.115 77.2996 122.734 78.098 122.624 79.0226Z" fill="#040404"/>
<path d="M103.187 44.6668C102.807 45.4661 102.427 46.2655 101.775 46.9384C101.648 47.2048 101.522 47.4713 100.98 47.2184C100.709 47.0919 100.836 46.8255 100.692 46.4326C101.199 45.3668 101.309 44.441 101.816 43.3752C102.07 42.8423 102.467 42.7023 102.738 42.8287C103.28 43.0816 103.026 43.6145 102.773 44.1474C103.314 44.4003 103.187 44.6668 103.187 44.6668Z" fill="#040404"/>
<path d="M120.826 84.7319C121.463 83.4016 122.101 82.0714 122.739 80.7412C122.866 80.4752 122.994 80.2091 123.266 80.3352C123.539 80.4613 123.685 80.8534 123.557 81.1194C122.92 82.4497 122.41 83.5138 121.499 84.718C121.645 85.1101 121.226 84.5919 120.826 84.7319Z" fill="#040404"/>
<path d="M114.591 69.8887C114.955 68.4311 115.446 66.7072 115.81 65.2495C115.937 64.9832 116.064 64.717 116.463 64.5769C116.734 64.7032 116.879 65.0957 116.751 65.362C116.388 66.8197 116.024 68.2773 115.388 69.6087C115.405 70.2675 114.862 70.015 114.591 69.8887Z" fill="#040404"/>
<path d="M114.017 65.6631C113.89 65.9294 113.762 66.1957 113.364 66.3357C113.237 66.602 112.965 66.4757 112.965 66.4757C112.693 66.3494 112.693 66.3494 112.821 66.0832C113.184 64.6255 113.693 63.5604 114.057 62.1028C114.184 61.8365 114.71 61.4302 114.981 61.5565C115.525 61.809 114.999 62.2153 114.872 62.4815C114.635 63.6729 114.525 64.598 114.017 65.6631Z" fill="#040404"/>
<path d="M119.01 68.7726C119.551 69.0255 119.695 69.4184 119.839 69.8114C119.476 71.2701 118.969 72.336 118.876 73.9212C118.75 74.1877 118.894 74.5806 118.225 74.5941C117.954 74.4677 117.81 74.0747 117.937 73.8083C117.759 72.0966 118.52 70.4978 119.01 68.7726Z" fill="#040404"/>
<path d="M117.27 66.2859C117.811 66.5388 118.226 67.0581 117.973 67.591C117.736 68.7833 117.356 69.5826 117.119 70.7749C116.993 71.0414 116.866 71.3078 116.595 71.1813C116.053 70.9284 116.451 70.7884 116.307 70.3955C116.543 69.2033 116.907 67.7446 117.27 66.2859Z" fill="#040404"/>
<path d="M140.009 85.8099C139.882 86.0761 139.899 86.7345 139.355 86.4823C138.81 86.2301 139.065 85.6978 139.192 85.4317C139.412 83.5827 140.176 81.9858 141.068 80.1228C141.195 79.8566 141.45 79.3243 141.994 79.5765C142.539 79.8287 142.012 80.2349 141.884 80.501C141.393 82.224 140.901 83.9469 140.009 85.8099Z" fill="#040404"/>
<path d="M137.15 78.8454C136.624 79.2517 136.659 80.5691 135.844 80.1904C135.029 79.8118 135.809 78.873 136.063 78.3405C136.572 77.2755 136.809 76.0843 137.046 74.8931C137.173 74.6269 137.3 74.3606 137.427 74.0944C137.554 73.8281 137.953 73.6881 138.225 73.8143C138.497 73.9405 138.37 74.2068 138.243 74.473C138.006 75.6642 137.913 77.2479 137.15 78.8454Z" fill="#040404"/>
<path d="M123.72 61.1979C123.812 59.6142 124.847 58.143 125.211 56.6856C125.338 56.4193 125.61 56.5455 125.61 56.5455C125.882 56.6717 126.154 56.7979 126.026 57.0642C125.662 58.5216 125.298 59.979 124.391 61.184C124.263 61.4503 123.992 61.3241 123.72 61.1979Z" fill="#040404"/>
</g>
</svg>
